<svg viewBox="0 0 600 380" xmlns="http://www.w3.org/2000/svg" fill-rule="evenodd" clip-rule="evenodd" stroke-linejoin="round" stroke-miterlimit="1.414"><path d="M34 185.274C34 155.587 50.732 134 78.24 134c20.523 0 34.143 11.535 37.426 29.833h-8.996c-2.59-12.805-12.651-21.875-28.584-21.875-22.868 0-34.554 19.122-34.554 43.316 0 24.616 12.098 42.799 34.417 42.799 18.776-.016 28.999-13.22 30.478-29.467h8.858c-.542 9.634-4.232 19.268-10.077 25.749-6.808 7.691-17.01 11.809-29.378 11.809-27.098 0-43.83-20.768-43.83-50.89" fill-rule="nonzero"/><path d="M133.502 135.917h9.112v98.321h-9.112z"/><path d="M184.191 144.158h-32.944v-8.241h74.856v8.241h-32.77v90.082h-9.142v-90.082z" fill-rule="nonzero"/><path d="M405.989 135.917h9.124v98.321h-9.124z"/><path d="M458.037 144.158h-32.912v-8.241h74.815v8.241h-32.781v90.082h-9.122v-90.082zm-212.136 74.924l-35.114-55.429h10.083l29.643 47.608h.279l29.941-47.608h9.796l-35.37 55.719V262h-9.258v-42.918z" fill-rule="nonzero"/><path d="M521.372 218.882l-35.104-55.429h10.05l29.676 47.578h.264l29.966-47.578H566l-35.398 55.702v42.621h-9.23v-42.894zm-218.173-33.608c0-29.687 16.734-51.274 44.222-51.274 20.553 0 34.147 11.535 37.42 29.833h-8.992c-2.589-12.805-12.637-21.875-28.573-21.875-22.869 0-34.571 19.122-34.571 43.316 0 24.616 12.13 42.783 34.429 42.783 18.778 0 28.991-13.204 30.47-29.451h8.886c-.548 9.634-4.244 19.268-10.089 25.749-6.803 7.691-17.01 11.809-29.395 11.809-27.073 0-43.807-20.768-43.807-50.89M6 330.055C6 301.666 22.531 280 52.226 280c20.091 0 34.98 10.214 38.55 29.75H81.35c-3.014-14.41-14.242-21.947-29.124-21.947-25.167 0-36.661 18.99-36.661 42.252 0 23.701 12.181 42.018 35.391 42.018 22.588 0 32.295-15.35 32.295-32.042v-3.368H51.797v-7.935H92.28v49.394h-6.42l-1.928-15.352h-.4C78.46 370.581 68.882 380 50.853 380 22.244 380 6 358.863 6 330.055m158.241 10.375l-13.392-35.931c-2.032-5.384-4.916-14.004-4.916-14.004h-.263s-2.614 8.223-4.809 14.004l-13.657 35.931h37.037zm-23.625-58.548h10.378l37.19 96.241h-9.834l-11.366-30.299h-42.529l-11.473 30.299h-9.321l36.955-96.241zm60.708.008h9.169v87.866h52.058v8.361h-61.227V281.89zm72.069 0h9.171v87.866h52.072v8.361h-61.243V281.89zm74.12 0h66.46v7.947h-57.297v34.562h52.508v7.807h-52.508v37.55h58.801v8.361h-67.964V281.89zm128.041 45.614c14.213 0 21.468-6.85 21.468-18.854 0-11.975-5.472-18.813-20.245-18.813h-32.543v37.667h31.32zm-40.469-45.622h43.612c17.621 0 27.751 9.963 27.751 25.993 0 11.836-5.185 19.629-16.388 23.129v.397c10.085 3.378 13.374 10.643 14.067 25.584.707 15.47 2.44 19.381 4.229 20.585v.54h-9.837c-2.201-1.483-2.728-5.117-3.529-21.521-.843-16.692-6.741-21.409-20.968-21.409h-29.788v42.93h-9.149v-96.228zm114.062 54.251l-35.27-54.243h10.127l29.798 46.553h.301l30.063-46.553H594l-35.539 54.509v41.719h-9.314v-41.985zM41.736 89.893c7.502 0 12.946-2.137 16.492-5.493 3.127-3.092 4.911-7.524 4.911-13.175 0-12.226-8.579-19.21-21.403-19.21H9.134v37.878h32.602zm-1.384-45.678c11.881 0 18.707-6.837 18.707-17.342 0-10.857-7.113-16.936-18.43-16.936H9.134v34.278h31.218zM0 2.04l40.516-.008c8.722 0 15.807 2.425 20.728 6.973 4.487 4.049 7.103 9.953 7.103 17.218 0 10.885-5.069 17.46-14.891 20.824v.414c11.188 3.09 18.956 10.882 18.956 23.645 0 7.777-2.438 14.105-7.083 18.787-5.058 5.121-12.982 8.214-23.054 8.214H0V2.04zm134.352 58.441l-13.371-35.875c-2.061-5.373-4.907-13.976-4.907-13.976h-.271s-2.59 8.183-4.797 13.976L97.367 60.481h36.985zM110.75 2.033h10.375l37.103 96.073h-9.85l-11.3-30.225H94.663L83.209 98.106h-9.288L110.75 2.033zm56.839-.01h9.964l44.883 67.462c4.884 7.243 9.681 15.846 9.681 15.846h.278V2.023h8.716v96.085h-9.547l-44.725-66.643c-4.519-6.739-10.265-16.279-10.265-16.279h-.251v82.922h-8.734V2.023zm84.436 48.11c0-28.359 16.5-49.995 46.121-49.995 20.045 0 34.9 10.212 38.447 29.716h-9.396c-3.005-14.38-14.186-21.922-29.051-21.922-25.116 0-36.56 18.949-36.56 42.201 0 23.669 12.129 41.913 35.332 41.913 22.489 0 32.182-15.304 32.182-31.972v-3.368h-31.38V48.78h40.394v49.316h-6.43l-1.911-15.304h-.403C324.328 90.59 314.784 100 296.79 100c-28.536 0-44.765-21.101-44.765-49.867m99.585-48.11h9.134v51.202l52.651-51.202h11.855l-40.756 39.11 43.223 56.975H416.8l-38.593-50.8-17.463 16.938v33.862h-9.134V2.023z" fill-rule="nonzero"/><path d="M503.424 49.995c0-23.256-12.541-41.909-35.982-41.909-23.359 0-35.766 18.653-35.766 41.909 0 23.258 12.407 41.915 35.766 41.915 23.441 0 35.982-18.657 35.982-41.915m-81.291 0C422.133 21.374 439.866 0 467.442 0c27.648 0 45.523 21.374 45.523 49.995 0 28.635-17.875 49.995-45.523 49.995-27.576 0-45.309-21.36-45.309-49.995M523.901 2.023h9.128v51.202l52.663-51.202h11.866l-40.791 39.11L600 98.108h-10.913l-38.583-50.8-17.475 16.938v33.862h-9.128V2.023z" fill-rule="nonzero"/></svg>